# Blender v3.1.2 OBJ File: ''
# www.blender.org
mtllib simple_wood.mtl
o Cylinder.003
v -9.491833 -0.412367 5.582050
v 7.814627 -0.356969 5.577373
v 7.813838 -0.108889 5.597902
v -9.492621 -0.164285 5.602581
v 7.813041 0.140009 5.594016
v -9.493419 0.084613 5.598694
v 7.812241 0.387327 5.565751
v -9.494218 0.331931 5.570429
v 7.811448 0.630684 5.513381
v -9.495011 0.575289 5.518061
v 7.810669 0.867736 5.437412
v -9.495790 0.812340 5.442091
v 7.809911 1.096201 5.338572
v -9.496548 1.040805 5.343250
v 7.809181 1.313877 5.217814
v -9.497278 1.258481 5.222492
v 7.808489 1.518669 5.076302
v -9.497972 1.463273 5.080981
v 7.807836 1.708604 4.915398
v -9.498624 1.653208 4.920076
v 7.807233 1.881853 4.736651
v -9.499226 1.826457 4.741330
v 7.806685 2.036748 4.541784
v -9.499776 1.981352 4.546463
v 7.806196 2.171797 4.332673
v -9.500263 2.116400 4.337352
v 7.805772 2.285699 4.111331
v -9.500688 2.230303 4.116010
v 7.805416 2.377357 3.879892
v -9.501044 2.321961 3.884571
v 7.805132 2.445889 3.640582
v -9.501327 2.390493 3.645260
v 7.804922 2.490635 3.395708
v -9.501536 2.435239 3.400386
v 7.804790 2.511164 3.147626
v -9.501669 2.455768 3.152304
v 7.804735 2.507277 2.898726
v -9.501725 2.451881 2.903405
v 7.804758 2.479012 2.651407
v -9.501700 2.423618 2.656085
v 7.804861 2.426643 2.408048
v -9.501599 2.371247 2.412727
v 7.805039 2.350673 2.170994
v -9.501420 2.295278 2.175673
v 7.805294 2.251834 1.942529
v -9.501164 2.196437 1.947208
v 7.805622 2.131076 1.724851
v -9.500837 2.075680 1.729531
v 7.806019 1.989564 1.520059
v -9.500440 1.934168 1.524737
v 7.806483 1.828661 1.330122
v -9.499976 1.773263 1.334801
v 7.807009 1.649915 1.156872
v -9.499452 1.594519 1.161551
v 7.807590 1.455049 1.001976
v -9.498869 1.399652 1.006655
v 7.808224 1.245938 0.866927
v -9.498237 1.190543 0.871606
v 7.808900 1.024598 0.753025
v -9.497558 0.969201 0.757703
v 7.809616 0.793159 0.661366
v -9.496842 0.737763 0.666044
v 7.810364 0.553850 0.592832
v -9.496095 0.498454 0.597512
v 7.811136 0.308977 0.548087
v -9.495324 0.253580 0.552765
v 7.811924 0.060896 0.527558
v -9.494534 0.005500 0.532237
v 7.812723 -0.188001 0.531445
v -9.493737 -0.243397 0.536123
v 7.813521 -0.435320 0.559708
v -9.492938 -0.490716 0.564386
v 7.814315 -0.678677 0.612078
v -9.492145 -0.734072 0.616756
v 7.815094 -0.915730 0.688049
v -9.491366 -0.971126 0.692728
v 7.815852 -1.144194 0.786889
v -9.490607 -1.199589 0.791567
v 7.816581 -1.361870 0.907647
v -9.489879 -1.417266 0.912326
v 7.817275 -1.566661 1.049160
v -9.489184 -1.622058 1.053838
v 7.817926 -1.756596 1.210063
v -9.488534 -1.811992 1.214742
v 7.818530 -1.929845 1.388809
v -9.487930 -1.985241 1.393488
v 7.819078 -2.084739 1.583676
v -9.487382 -2.140135 1.588355
v 7.819567 -2.219788 1.792787
v -9.486893 -2.275184 1.797465
v 7.819991 -2.333689 2.014128
v -9.486468 -2.389085 2.018806
v 7.820347 -2.425348 2.245568
v -9.486114 -2.480744 2.250246
v 7.820631 -2.493880 2.484877
v -9.485828 -2.549276 2.489555
v 7.820840 -2.538625 2.729751
v -9.485620 -2.594021 2.734429
v 7.820972 -2.559154 2.977831
v -9.485486 -2.614550 2.982511
v 7.821029 -2.555268 3.226730
v -9.485431 -2.610663 3.231409
v 7.821004 -2.527004 3.474050
v -9.485456 -2.582400 3.478728
v 7.820903 -2.474636 3.717408
v -9.485557 -2.530032 3.722086
v 7.820724 -2.398665 3.954461
v -9.485736 -2.454062 3.959139
v 7.820468 -2.299826 4.182926
v -9.485990 -2.355221 4.187603
v 7.820142 -2.179070 4.400603
v -9.486318 -2.234465 4.405281
v 7.819743 -2.037560 4.605396
v -9.486716 -2.092955 4.610074
v 7.819280 -1.876656 4.795332
v -9.487180 -1.932052 4.800010
v 7.818755 -1.697911 4.968583
v -9.487706 -1.753308 4.973260
v 7.818173 -1.503045 5.123479
v -9.488286 -1.558442 5.128157
v 7.817540 -1.293937 5.258529
v -9.488919 -1.349332 5.263207
v 7.816863 -1.072597 5.372432
v -9.489596 -1.127993 5.377110
v 7.816146 -0.841159 5.464091
v -9.490312 -0.896555 5.468769
v -9.491061 -0.657247 5.537303
v 7.815398 -0.601851 5.532625
vt 0.500000 1.000000
vt 0.500000 0.000000
vt 0.549009 0.000000
vt 0.549009 1.000000
vt 0.597545 0.000000
vt 0.597545 1.000000
vt 0.645143 0.000000
vt 0.645143 1.000000
vt 0.691342 0.000000
vt 0.691342 1.000000
vt 0.735698 0.000000
vt 0.735698 1.000000
vt 0.777785 0.000000
vt 0.777785 1.000000
vt 0.817197 0.000000
vt 0.817197 1.000000
vt 0.853553 0.000000
vt 0.853553 1.000000
vt 0.886505 0.000000
vt 0.886505 1.000000
vt 0.915734 0.000000
vt 0.915734 1.000000
vt 0.940961 0.000000
vt 0.940961 1.000000
vt 0.961940 0.000000
vt 0.961940 1.000000
vt 0.978470 0.000000
vt 0.978470 1.000000
vt 0.990392 0.000000
vt 0.990392 1.000000
vt 0.997592 0.000000
vt 0.997592 1.000000
vt 1.000000 0.000000
vt 1.000000 1.000000
vt 0.997592 0.000000
vt 0.997592 1.000000
vt 0.990392 0.000000
vt 0.990392 1.000000
vt 0.978470 0.000000
vt 0.978470 1.000000
vt 0.961940 0.000000
vt 0.961940 1.000000
vt 0.940961 0.000000
vt 0.940961 1.000000
vt 0.915734 0.000000
vt 0.915734 1.000000
vt 0.886505 0.000000
vt 0.886505 1.000000
vt 0.853553 0.000000
vt 0.853553 1.000000
vt 0.817196 0.000000
vt 0.817196 1.000000
vt 0.777785 0.000000
vt 0.777785 1.000000
vt 0.735698 0.000000
vt 0.735698 1.000000
vt 0.691342 0.000000
vt 0.691342 1.000000
vt 0.645142 0.000000
vt 0.645142 1.000000
vt 0.597545 0.000000
vt 0.597545 1.000000
vt 0.549008 0.000000
vt 0.549008 1.000000
vt 0.499999 0.000000
vt 0.499999 1.000000
vt 0.450991 0.000000
vt 0.450991 1.000000
vt 0.402455 0.000000
vt 0.402455 1.000000
vt 0.354857 0.000000
vt 0.354857 1.000000
vt 0.308658 0.000000
vt 0.308658 1.000000
vt 0.264301 0.000000
vt 0.264301 1.000000
vt 0.222214 0.000000
vt 0.222214 1.000000
vt 0.182803 0.000000
vt 0.182803 1.000000
vt 0.146446 0.000000
vt 0.146446 1.000000
vt 0.113494 0.000000
vt 0.113494 1.000000
vt 0.084265 0.000000
vt 0.084265 1.000000
vt 0.059039 0.000000
vt 0.059039 1.000000
vt 0.038060 0.000000
vt 0.038060 1.000000
vt 0.021530 0.000000
vt 0.021530 1.000000
vt 0.009607 0.000000
vt 0.009607 1.000000
vt 0.002408 0.000000
vt 0.002408 1.000000
vt 0.000000 0.000000
vt 0.000000 1.000000
vt 0.002408 0.000000
vt 0.002408 1.000000
vt 0.009607 0.000000
vt 0.009607 1.000000
vt 0.021529 0.000000
vt 0.021529 1.000000
vt 0.038060 0.000000
vt 0.038060 1.000000
vt 0.059039 0.000000
vt 0.059039 1.000000
vt 0.084265 0.000000
vt 0.084265 1.000000
vt 0.113494 0.000000
vt 0.113494 1.000000
vt 0.146446 0.000000
vt 0.146446 1.000000
vt 0.182802 0.000000
vt 0.182802 1.000000
vt 0.222214 0.000000
vt 0.222214 1.000000
vt 0.264301 0.000000
vt 0.264301 1.000000
vt 0.308657 0.000000
vt 0.308657 1.000000
vt 0.354856 0.000000
vt 0.354856 1.000000
vt 0.402453 0.000000
vt 0.402453 1.000000
vt 0.450990 1.000000
vt 0.450990 0.000000
vt 0.668614 0.971240
vt 0.621612 0.985498
vt 0.573437 0.995081
vt 0.524557 0.999895
vt 0.475440 0.999895
vt 0.426559 0.995081
vt 0.378386 0.985498
vt 0.331384 0.971240
vt 0.286006 0.952444
vt 0.242687 0.929289
vt 0.201849 0.902002
vt 0.163882 0.870843
vt 0.129151 0.836112
vt 0.097992 0.798145
vt 0.070705 0.757306
vt 0.047550 0.713988
vt 0.028754 0.668611
vt 0.014497 0.621610
vt 0.004915 0.573438
vt 0.000100 0.524558
vt 0.000100 0.475444
vt 0.004913 0.426567
vt 0.014495 0.378395
vt 0.028753 0.331392
vt 0.047549 0.286012
vt 0.070702 0.242694
vt 0.097989 0.201856
vt 0.129149 0.163887
vt 0.163880 0.129155
vt 0.201850 0.097994
vt 0.242690 0.070705
vt 0.286007 0.047551
vt 0.331384 0.028755
vt 0.378386 0.014497
vt 0.426560 0.004914
vt 0.475442 0.000100
vt 0.524559 0.000100
vt 0.573440 0.004914
vt 0.621614 0.014496
vt 0.668614 0.028754
vt 0.713992 0.047550
vt 0.757310 0.070704
vt 0.798149 0.097992
vt 0.836118 0.129152
vt 0.870848 0.163882
vt 0.902006 0.201849
vt 0.929294 0.242688
vt 0.952448 0.286006
vt 0.971246 0.331387
vt 0.985504 0.378391
vt 0.995086 0.426565
vt 0.999900 0.475444
vt 0.999900 0.524559
vt 0.995085 0.573441
vt 0.985502 0.621614
vt 0.971244 0.668617
vt 0.952448 0.713993
vt 0.929295 0.757309
vt 0.902007 0.798146
vt 0.870848 0.836114
vt 0.836116 0.870845
vt 0.798149 0.902003
vt 0.757310 0.929291
vt 0.713992 0.952444
vt 0.621609 0.014496
vt 0.668609 0.028753
vt 0.713987 0.047548
vt 0.757305 0.070701
vt 0.798145 0.097989
vt 0.836114 0.129149
vt 0.870845 0.163880
vt 0.902005 0.201848
vt 0.929293 0.242687
vt 0.952447 0.286005
vt 0.971244 0.331384
vt 0.985502 0.378387
vt 0.995084 0.426561
vt 0.999898 0.475440
vt 0.999898 0.524558
vt 0.995084 0.573439
vt 0.985501 0.621614
vt 0.971243 0.668616
vt 0.952446 0.713995
vt 0.929292 0.757313
vt 0.902003 0.798153
vt 0.870842 0.836122
vt 0.836111 0.870852
vt 0.798144 0.902011
vt 0.757305 0.929298
vt 0.713987 0.952451
vt 0.668607 0.971248
vt 0.621606 0.985505
vt 0.573434 0.995086
vt 0.524555 0.999900
vt 0.475438 0.999900
vt 0.426557 0.995085
vt 0.378385 0.985503
vt 0.331382 0.971244
vt 0.286003 0.952447
vt 0.242685 0.929292
vt 0.201845 0.902003
vt 0.163876 0.870842
vt 0.129145 0.836110
vt 0.097986 0.798142
vt 0.070700 0.757304
vt 0.047548 0.713988
vt 0.028752 0.668610
vt 0.014495 0.621609
vt 0.004914 0.573437
vt 0.000100 0.524558
vt 0.000100 0.475439
vt 0.004915 0.426559
vt 0.014497 0.378387
vt 0.028755 0.331387
vt 0.047552 0.286009
vt 0.070706 0.242691
vt 0.097993 0.201853
vt 0.129153 0.163885
vt 0.163885 0.129153
vt 0.201853 0.097994
vt 0.242691 0.070707
vt 0.286010 0.047553
vt 0.331387 0.028756
vt 0.378388 0.014498
vt 0.426560 0.004915
vt 0.475439 0.000101
vt 0.524556 0.000100
vt 0.573434 0.004914
vn 0.0005 -0.0825 0.9966
vn 0.0002 0.0156 0.9999
vn -0.0001 0.1135 0.9935
vn -0.0004 0.2104 0.9776
vn -0.0007 0.3052 0.9523
vn -0.0010 0.3971 0.9178
vn -0.0013 0.4851 0.8745
vn -0.0016 0.5685 0.8227
vn -0.0019 0.6464 0.7630
vn -0.0021 0.7181 0.6960
vn -0.0023 0.7828 0.6222
vn -0.0025 0.8400 0.5425
vn -0.0027 0.8892 0.4576
vn -0.0029 0.9297 0.3682
vn -0.0030 0.9614 0.2753
vn -0.0031 0.9837 0.1798
vn -0.0032 0.9966 0.0825
vn -0.0032 0.9999 -0.0156
vn -0.0032 0.9935 -0.1135
vn -0.0032 0.9776 -0.2104
vn -0.0031 0.9523 -0.3052
vn -0.0030 0.9178 -0.3971
vn -0.0029 0.8744 -0.4851
vn -0.0028 0.8227 -0.5685
vn -0.0026 0.7630 -0.6464
vn -0.0024 0.6960 -0.7181
vn -0.0022 0.6222 -0.7828
vn -0.0020 0.5425 -0.8400
vn -0.0017 0.4576 -0.8892
vn -0.0014 0.3682 -0.9297
vn -0.0011 0.2753 -0.9614
vn -0.0008 0.1798 -0.9837
vn -0.0005 0.0825 -0.9966
vn -0.0002 -0.0156 -0.9999
vn 0.0001 -0.1135 -0.9935
vn 0.0004 -0.2104 -0.9776
vn 0.0007 -0.3052 -0.9523
vn 0.0010 -0.3971 -0.9178
vn 0.0013 -0.4851 -0.8745
vn 0.0016 -0.5685 -0.8227
vn 0.0019 -0.6464 -0.7630
vn 0.0021 -0.7181 -0.6960
vn 0.0023 -0.7828 -0.6222
vn 0.0025 -0.8400 -0.5425
vn 0.0027 -0.8892 -0.4576
vn 0.0029 -0.9297 -0.3682
vn 0.0030 -0.9614 -0.2753
vn 0.0031 -0.9837 -0.1798
vn 0.0032 -0.9966 -0.0825
vn 0.0032 -0.9999 0.0156
vn 0.0032 -0.9935 0.1135
vn 0.0032 -0.9776 0.2104
vn 0.0031 -0.9523 0.3052
vn 0.0030 -0.9178 0.3971
vn 0.0029 -0.8745 0.4851
vn 0.0028 -0.8227 0.5685
vn 0.0026 -0.7630 0.6464
vn 0.0024 -0.6960 0.7181
vn 0.0022 -0.6222 0.7828
vn 0.0020 -0.5425 0.8400
vn 0.0017 -0.4576 0.8892
vn 0.0014 -0.3682 0.9297
vn 0.0008 -0.1798 0.9837
vn 0.0011 -0.2753 0.9614
vn 1.0000 0.0032 -0.0003
vn -1.0000 -0.0032 0.0003
usemtl wood
s 1
f 1/1/1 2/2/1 3/3/1 4/4/1
f 4/4/2 3/3/2 5/5/2 6/6/2
f 6/6/3 5/5/3 7/7/3 8/8/3
f 8/8/4 7/7/4 9/9/4 10/10/4
f 10/10/5 9/9/5 11/11/5 12/12/5
f 12/12/6 11/11/6 13/13/6 14/14/6
f 14/14/7 13/13/7 15/15/7 16/16/7
f 16/16/8 15/15/8 17/17/8 18/18/8
f 18/18/9 17/17/9 19/19/9 20/20/9
f 20/20/10 19/19/10 21/21/10 22/22/10
f 22/22/11 21/21/11 23/23/11 24/24/11
f 24/24/12 23/23/12 25/25/12 26/26/12
f 26/26/13 25/25/13 27/27/13 28/28/13
f 28/28/14 27/27/14 29/29/14 30/30/14
f 30/30/15 29/29/15 31/31/15 32/32/15
f 32/32/16 31/31/16 33/33/16 34/34/16
f 34/34/17 33/33/17 35/35/17 36/36/17
f 36/36/18 35/35/18 37/37/18 38/38/18
f 38/38/19 37/37/19 39/39/19 40/40/19
f 40/40/20 39/39/20 41/41/20 42/42/20
f 42/42/21 41/41/21 43/43/21 44/44/21
f 44/44/22 43/43/22 45/45/22 46/46/22
f 46/46/23 45/45/23 47/47/23 48/48/23
f 48/48/24 47/47/24 49/49/24 50/50/24
f 50/50/25 49/49/25 51/51/25 52/52/25
f 52/52/26 51/51/26 53/53/26 54/54/26
f 54/54/27 53/53/27 55/55/27 56/56/27
f 56/56/28 55/55/28 57/57/28 58/58/28
f 58/58/29 57/57/29 59/59/29 60/60/29
f 60/60/30 59/59/30 61/61/30 62/62/30
f 62/62/31 61/61/31 63/63/31 64/64/31
f 64/64/32 63/63/32 65/65/32 66/66/32
f 66/66/33 65/65/33 67/67/33 68/68/33
f 68/68/34 67/67/34 69/69/34 70/70/34
f 70/70/35 69/69/35 71/71/35 72/72/35
f 72/72/36 71/71/36 73/73/36 74/74/36
f 74/74/37 73/73/37 75/75/37 76/76/37
f 76/76/38 75/75/38 77/77/38 78/78/38
f 78/78/39 77/77/39 79/79/39 80/80/39
f 80/80/40 79/79/40 81/81/40 82/82/40
f 82/82/41 81/81/41 83/83/41 84/84/41
f 84/84/42 83/83/42 85/85/42 86/86/42
f 86/86/43 85/85/43 87/87/43 88/88/43
f 88/88/44 87/87/44 89/89/44 90/90/44
f 90/90/45 89/89/45 91/91/45 92/92/45
f 92/92/46 91/91/46 93/93/46 94/94/46
f 94/94/47 93/93/47 95/95/47 96/96/47
f 96/96/48 95/95/48 97/97/48 98/98/48
f 98/98/49 97/97/49 99/99/49 100/100/49
f 100/100/50 99/99/50 101/101/50 102/102/50
f 102/102/51 101/101/51 103/103/51 104/104/51
f 104/104/52 103/103/52 105/105/52 106/106/52
f 106/106/53 105/105/53 107/107/53 108/108/53
f 108/108/54 107/107/54 109/109/54 110/110/54
f 110/110/55 109/109/55 111/111/55 112/112/55
f 112/112/56 111/111/56 113/113/56 114/114/56
f 114/114/57 113/113/57 115/115/57 116/116/57
f 116/116/58 115/115/58 117/117/58 118/118/58
f 118/118/59 117/117/59 119/119/59 120/120/59
f 120/120/60 119/119/60 121/121/60 122/122/60
f 122/122/61 121/121/61 123/123/61 124/124/61
f 124/124/62 123/123/62 125/125/62 126/126/62
f 127/127/63 128/128/63 2/2/63 1/1/63
f 126/126/64 125/125/64 128/128/64 127/127/64
usemtl wood2
f 3/129/65 2/130/65 128/131/65 125/132/65 123/133/65 121/134/65 119/135/65 117/136/65 115/137/65 113/138/65 111/139/65 109/140/65 107/141/65 105/142/65 103/143/65 101/144/65 99/145/65 97/146/65 95/147/65 93/148/65 91/149/65 89/150/65 87/151/65 85/152/65 83/153/65 81/154/65 79/155/65 77/156/65 75/157/65 73/158/65 71/159/65 69/160/65 67/161/65 65/162/65 63/163/65 61/164/65 59/165/65 57/166/65 55/167/65 53/168/65 51/169/65 49/170/65 47/171/65 45/172/65 43/173/65 41/174/65 39/175/65 37/176/65 35/177/65 33/178/65 31/179/65 29/180/65 27/181/65 25/182/65 23/183/65 21/184/65 19/185/65 17/186/65 15/187/65 13/188/65 11/189/65 9/190/65 7/191/65 5/192/65
f 1/193/66 4/194/66 6/195/66 8/196/66 10/197/66 12/198/66 14/199/66 16/200/66 18/201/66 20/202/66 22/203/66 24/204/66 26/205/66 28/206/66 30/207/66 32/208/66 34/209/66 36/210/66 38/211/66 40/212/66 42/213/66 44/214/66 46/215/66 48/216/66 50/217/66 52/218/66 54/219/66 56/220/66 58/221/66 60/222/66 62/223/66 64/224/66 66/225/66 68/226/66 70/227/66 72/228/66 74/229/66 76/230/66 78/231/66 80/232/66 82/233/66 84/234/66 86/235/66 88/236/66 90/237/66 92/238/66 94/239/66 96/240/66 98/241/66 100/242/66 102/243/66 104/244/66 106/245/66 108/246/66 110/247/66 112/248/66 114/249/66 116/250/66 118/251/66 120/252/66 122/253/66 124/254/66 126/255/66 127/256/66
